# xmcd CD database file
#
# Track frame offsets:
#	150
#	23279
#	45038
#	66497
#	83850
#	106341
#	110082
#	129863
#	151913
#	173138
#	200588
#
# Disc length: 2912 seconds
#
# Revision: 0
# Processed by: cddbd v1.5.2PL0 Copyright (c) Steve Scherf et al.
# Submitted via: CDex 1.70beta2
#
DISCID=810b5e0b
DTITLE=Blu-Swing - JAZZYSTER 
DYEAR=2007
DGENRE=Jazz
TTITLE0=FABULOUS 
TTITLE1=SIDE:WALKAZ 
TTITLE2=MIDNIGHT LOUNGE 
TTITLE3=斬(FEAT.INORI,TEKI-NE) 
TTITLE4=BOSSANAVIA 
TTITLE5=INTERLUDE 
TTITLE6=BLUE VELVET(FEAT.TOMMY) 
TTITLE7=REALIZE(JUST WILL REMIX) 
TTITLE8=MIDNIGHT LOUNGE(YUSUKE AT ESKYM JAZZ REMIX) 
TTITLE9=FABULOUS(RYOW A.K.A. SMOOTH CURRENT REMIX) 
TTITLE10=ACOUSTIC LOVER 
EXTD=YEAR: 2007
EXTT0=
EXTT1=
EXTT2=
EXTT3=
EXTT4=
EXTT5=
EXTT6=
EXTT7=
EXTT8=
EXTT9=
EXTT10=
PLAYORDER=
